<svg xmlns="http://www.w3.org/2000/svg" width="101" height="101" fill="none" viewBox="0 0 101 101">
  <path fill="#191919" d="M0 0h101v101H0z"/>
  <path fill="url(#a)" d="M0 0h101v101H0z" style="mix-blend-mode:soft-light"/>
  <g clip-path="url(#b)">
    <path fill="url(#c)" d="m54.297 51.944-1.075-1.111 10.741-12.945c2.74 1.593 6.352 1.334 8.852-.666 2.926-2.352 3.833-6.463 2.148-9.778-.037-.056-.055-.111-.092-.167a.141.141 0 0 0-.037-.074c-1.538-2.833-4.815-4.5-8-4.055-3.297.462-5.982 2.944-6.686 6.185-.518 2.37.13 4.87 1.723 6.778L51.296 48.833l-1.222-1.278-18.259-19.389a10.55 10.55 0 0 0-7.704-3.333h-4.018L45.61 51.98l1.611 1.722L26.87 78.295c-.556.685-.334 1.463.203 1.907.519.444 1.352.519 1.908-.148l1.796-2.167 3.796 3.148.148-5.314 5.204-1.111-3.796-3.149 13.018-15.666.723.777 17.333 18.463a14.221 14.221 0 0 0 10.352 4.482H80L54.297 51.944Zm8.425-21.185a5.22 5.22 0 0 1 3.834-4.741c.278-.074.555-.13.852-.148 1.981-.186 3.981.852 5.055 2.722 1.13 2.278.63 4.852-1.296 6.481a4.797 4.797 0 0 1-1.685.908c-3.815 1.13-6.945-2-6.76-5.222Z"/>
  </g>
  <defs>
    <linearGradient id="a" x1="50.5" x2="50.5" y1="0" y2="101" gradientUnits="userSpaceOnUse">
      <stop stop-color="#fff" stop-opacity=".4"/>
      <stop offset="1" stop-color="#fff" stop-opacity="0"/>
    </linearGradient>
    <linearGradient id="c" x1="20.122" x2="79.972" y1="52.064" y2="52.064" gradientUnits="userSpaceOnUse">
      <stop offset=".008" stop-color="#6C2D16"/>
      <stop offset=".17" stop-color="#B47851"/>
      <stop offset=".205" stop-color="#C68C61"/>
      <stop offset=".416" stop-color="#D69C6F"/>
      <stop offset=".671" stop-color="#925D34"/>
      <stop offset="1" stop-color="#6C2D16"/>
    </linearGradient>
    <clipPath id="b">
      <path fill="#fff" d="M20 23h60v58.148H20z"/>
    </clipPath>
  </defs>
</svg>
