<svg xmlns="http://www.w3.org/2000/svg" width="150" height="50" fill="none" viewBox="0 0 150 50">
  <g clip-path="url(#a)">
    <path fill="#fff" d="M38.086 30.091c.173.52.282.91.282 1.147 0 .217-.304.347-.759.39l-.629.065c-.151.108-.13.454.044.54.629-.021 1.452-.065 2.493-.065.975 0 1.735.022 2.623.066.109-.087.153-.433 0-.542l-.585-.064c-.932-.109-1.214-.433-1.843-2.293l-2.97-8.697c-.325-.952-.673-1.946-.954-2.899-.044-.151-.197-.194-.325-.194-.24.28-.607.67-1.128.822.066.346-.065.757-.369 1.536l-2.211 5.84c-.91 2.424-1.517 3.83-1.908 4.825-.304.778-.78 1.017-1.3 1.06l-.716.065c-.13.108-.087.454.043.54.586-.021 1.366-.065 2.081-.065 1.02.022 1.692.022 2.256.066.195-.087.195-.433.043-.542l-.716-.064c-.52-.043-.629-.173-.629-.433 0-.238.153-.822.477-1.796l.76-2.27c.152-.455.282-.52.823-.52h3.274c.65 0 .738.065.89.54l.953 2.942Zm-3.88-8.63c.239-.65.455-1.17.52-1.277h.044c.13.26.325.844.499 1.363l1.17 3.527c.196.583.152.67-.476.67h-2.67c-.607 0-.628-.022-.454-.52l1.366-3.764h.001Zm15.81-2.185c0-.693.02-.78 1.17-.78 2.255 0 3.49 1.364 3.49 3.462 0 1.882-.845 3.202-3.185 3.634-.131.043-.131.368.02.433.89 0 2.039-.195 2.993-.65.932-.454 2.167-1.45 2.167-3.438 0-1.494-.737-2.618-1.734-3.246-1.018-.627-2.364-.864-4.163-.864-1.8 0-3.144.021-4.293.173-.173.086-.194.41-.043.54l.78.087c.976.108 1.02.476 1.02 2.314v7.983c0 2.271-.044 2.53-1.301 2.704l-.456.065c-.13.13-.086.475.044.54a55.413 55.413 0 0 1 2.645-.065 74.3 74.3 0 0 1 2.819.066c.13-.066.173-.433.043-.542l-.585-.064c-1.389-.152-1.432-.433-1.432-2.704v-9.648Zm17.07 13.714c4.185 0 7.524-3.181 7.524-7.55 0-3.808-2.515-7.42-7.524-7.42-4.466 0-7.718 3.31-7.718 7.636 0 3.894 2.906 7.334 7.718 7.334Zm.282-.671c-4.271 0-5.832-4.154-5.832-7.355 0-4.738 2.927-6.274 5.182-6.274 4.141 0 5.724 3.851 5.724 7.42 0 4.262-2.472 6.209-5.073 6.209ZM80.2 28.924c0 2.271-.043 2.574-1.3 2.704l-.65.065c-.132.13-.088.475.042.54a73.062 73.062 0 0 1 2.819-.065h1.995c2.233 0 4.293.022 5.398.066.303-.585.91-2.791.91-3.03 0-.15-.41-.237-.541-.129-.434 1.103-.998 1.882-1.431 2.142-.347.195-.802.28-2.644.28-1.714 0-2.126-.259-2.364-.496-.39-.412-.456-.974-.456-2.337v-7.528c0-2.272.044-2.618 1.323-2.726l.52-.043c.13-.087.087-.477-.044-.54-1.083.043-1.82.064-2.666.064-.867 0-1.604-.021-2.819-.065-.13.065-.173.454-.043.541l.542.043c1.366.108 1.409.454 1.409 2.726v7.788Zm14.904 0c0 2.271-.044 2.574-1.302 2.704l-.65.065c-.13.13-.087.475.043.54a73.11 73.11 0 0 1 2.819-.065h1.994c2.233 0 4.294.022 5.4.066.303-.585.909-2.791.909-3.03 0-.15-.41-.237-.542-.129-.433 1.103-.996 1.882-1.43 2.142-.347.195-.804.28-2.645.28-1.713 0-2.125-.259-2.364-.496-.39-.412-.454-.974-.454-2.337v-7.528c0-2.272.042-2.618 1.322-2.726l.52-.043c.13-.087.087-.477-.043-.54a63.313 63.313 0 0 1-2.667.064c-.867 0-1.605-.021-2.82-.065-.129.065-.172.454-.042.541l.542.043c1.366.108 1.41.454 1.41 2.726v7.788Zm19.162 4.067c4.185 0 7.524-3.181 7.524-7.55 0-3.808-2.515-7.42-7.524-7.42-4.465 0-7.718 3.31-7.718 7.636 0 3.894 2.906 7.334 7.718 7.334Zm.283-.671c-4.272 0-5.833-4.154-5.833-7.355 0-4.738 2.927-6.274 5.182-6.274 4.141 0 5.724 3.851 5.724 7.42 0 4.262-2.471 6.209-5.073 6.209Z"/>
  </g>
  <defs>
    <clipPath id="a">
      <path fill="#fff" d="M27.752 17.01h94.496v15.981H27.752z"/>
    </clipPath>
  </defs>
</svg>
