<svg xmlns="http://www.w3.org/2000/svg" width="150" height="50" fill="none" viewBox="0 0 150 50">
  <path fill="#fff" d="M12.771 17.022v15.461h16.164v-15.46H12.77ZM9.611 14h22.49v21.511H9.61V14Zm4.92 16.338 8.574-11.165h4.076l-8.574 11.165H14.53Z"/>
  <path fill="#fff" d="M45.727 30h-2.46v-1.337h2.38c.753 0 1.379-.14 1.878-.42a2.653 2.653 0 0 0 1.123-1.237c.25-.549.374-1.215.374-1.999 0-.78-.125-1.44-.374-1.978a2.629 2.629 0 0 0-1.103-1.23c-.486-.281-1.092-.421-1.818-.421h-2.514V20.04h2.614c.98 0 1.82.198 2.52.595.7.396 1.236.967 1.61 1.71.375.74.562 1.627.562 2.661 0 1.038-.19 1.93-.568 2.674a3.96 3.96 0 0 1-1.638 1.717c-.713.401-1.575.602-2.586.602Zm-1.711-9.96V30h-1.524v-9.96h1.524Zm11.463 10.114c-.736 0-1.37-.159-1.905-.475a3.177 3.177 0 0 1-1.237-1.337c-.285-.575-.428-1.25-.428-2.025 0-.766.14-1.441.421-2.025a3.262 3.262 0 0 1 1.204-1.364c.516-.33 1.123-.494 1.818-.494.427 0 .84.071 1.236.214.397.138.753.356 1.07.655.316.298.566.686.748 1.163.187.472.28 1.047.28 1.724v.521h-5.955v-1.096h5.2l-.688.361a3.17 3.17 0 0 0-.214-1.21 1.795 1.795 0 0 0-.635-.822c-.276-.196-.623-.294-1.042-.294-.415 0-.77.1-1.063.301-.294.2-.52.466-.675.795a2.501 2.501 0 0 0-.227 1.07v.748c0 .513.086.947.26 1.304.178.352.426.62.742.802a2.21 2.21 0 0 0 1.103.267c.276 0 .526-.038.749-.113a1.546 1.546 0 0 0 .949-.943l1.383.328a2.53 2.53 0 0 1-.608 1.016 2.88 2.88 0 0 1-1.056.688c-.419.16-.896.24-1.43.24Zm7.372-.06c-.508 0-.953-.107-1.337-.321a2.2 2.2 0 0 1-.895-.95c-.21-.418-.315-.935-.315-1.55v-4.746h1.471v4.565c0 .54.14.96.421 1.264.285.303.67.454 1.156.454.335 0 .63-.071.89-.214a1.58 1.58 0 0 0 .621-.635c.151-.28.227-.617.227-1.009v-4.425h1.47V30h-1.403l-.007-1.831h.14c-.218.677-.536 1.167-.955 1.47-.419.303-.913.455-1.484.455Zm8.883-7.567v1.197h-4.05v-1.197h4.05Zm-2.96-1.778h1.47v7.232c0 .299.062.52.187.662.129.138.338.207.628.207.076 0 .176-.009.3-.026.126-.018.233-.036.322-.054l.26 1.177a2.498 2.498 0 0 1-.5.113c-.18.027-.355.04-.529.04-.677 0-1.203-.174-1.577-.521-.375-.352-.562-.845-.562-1.477v-7.353Zm6.99 9.405c-.539 0-1.02-.078-1.443-.234a2.567 2.567 0 0 1-1.036-.689 2.4 2.4 0 0 1-.535-1.123l1.384-.287c.102.388.294.675.575.862.28.187.637.281 1.069.281.472 0 .849-.098 1.13-.294.28-.2.42-.439.42-.715a.764.764 0 0 0-.26-.595c-.17-.156-.432-.272-.789-.348l-1.256-.287c-.695-.156-1.212-.406-1.551-.749-.339-.343-.508-.782-.508-1.316 0-.446.125-.836.374-1.17.25-.334.59-.593 1.023-.776.432-.187.931-.28 1.497-.28.54 0 1 .078 1.384.234.383.156.693.374.929.655.24.28.412.606.514.976l-1.316.287a1.596 1.596 0 0 0-.488-.688c-.232-.201-.568-.301-1.01-.301-.405 0-.744.091-1.015.274-.272.182-.408.414-.408.695 0 .25.089.452.267.608.183.152.48.274.89.368l1.202.267c.691.156 1.203.401 1.538.735.334.335.501.762.501 1.284 0 .454-.132.858-.394 1.21-.259.347-.62.621-1.083.822-.46.196-.994.294-1.604.294Zm7.841 0c-.704 0-1.317-.16-1.838-.482a3.254 3.254 0 0 1-1.217-1.35c-.29-.579-.434-1.252-.434-2.018 0-.776.145-1.453.434-2.032a3.245 3.245 0 0 1 1.217-1.357c.521-.32 1.134-.481 1.838-.481.388 0 .75.05 1.09.153.338.098.643.243.915.435.276.187.508.419.695.695.192.272.334.58.428.922l-1.397.335a1.717 1.717 0 0 0-.227-.522 1.664 1.664 0 0 0-.374-.414 1.545 1.545 0 0 0-.502-.268 1.957 1.957 0 0 0-.621-.093c-.45 0-.825.12-1.123.36a2.14 2.14 0 0 0-.662.95 3.868 3.868 0 0 0-.214 1.317c0 .477.071.913.214 1.31.147.392.368.706.662.942.298.236.673.354 1.123.354.231 0 .443-.03.635-.093.191-.067.363-.158.514-.274a1.64 1.64 0 0 0 .381-.428 1.83 1.83 0 0 0 .22-.555l1.391.335c-.089.352-.23.668-.42.949a2.868 2.868 0 0 1-.703.708 3.051 3.051 0 0 1-.922.448c-.343.102-.71.154-1.103.154Zm6.23-4.579V30h-1.471v-9.96h1.457v4.319h-.194c.219-.669.535-1.157.95-1.464.414-.308.915-.461 1.503-.461.508 0 .952.107 1.33.32.384.214.68.53.89.95.213.414.32.931.32 1.55V30h-1.47v-4.565c0-.54-.14-.96-.421-1.263-.281-.303-.666-.455-1.157-.455a1.8 1.8 0 0 0-.889.22c-.263.143-.47.353-.621.629-.152.276-.227.613-.227 1.01Zm9.985 4.579c-.735 0-1.37-.159-1.904-.475a3.177 3.177 0 0 1-1.237-1.337c-.285-.575-.428-1.25-.428-2.025 0-.766.14-1.441.421-2.025a3.261 3.261 0 0 1 1.203-1.364c.517-.33 1.123-.494 1.818-.494.428 0 .84.071 1.237.214a2.95 2.95 0 0 1 1.069.655c.317.298.566.686.749 1.163.187.472.281 1.047.281 1.724v.521h-5.956v-1.096h5.2l-.688.361c0-.459-.071-.862-.214-1.21a1.789 1.789 0 0 0-.635-.822c-.276-.196-.624-.294-1.043-.294-.414 0-.768.1-1.062.301-.294.2-.52.466-.675.795a2.501 2.501 0 0 0-.228 1.07v.748c0 .513.087.947.261 1.304.178.352.426.62.742.802a2.21 2.21 0 0 0 1.103.267c.276 0 .526-.038.748-.113a1.546 1.546 0 0 0 .95-.943l1.383.328a2.53 2.53 0 0 1-.608 1.016 2.884 2.884 0 0 1-1.056.688 3.98 3.98 0 0 1-1.43.24Zm8.59-.154v-9.96h3.67c.708 0 1.294.117 1.758.348.463.232.809.546 1.036.943.227.392.341.833.341 1.323 0 .415-.076.765-.227 1.05-.152.28-.357.508-.615.681-.254.17-.535.294-.843.375v.1c.335.013.66.12.976.32.317.197.577.475.782.836.21.357.314.791.314 1.304 0 .503-.12.958-.361 1.363-.236.406-.601.727-1.096.963-.494.236-1.129.354-1.905.354h-3.83Zm1.524-1.31h2.153c.713 0 1.225-.138 1.537-.415a1.32 1.32 0 0 0 .468-1.029c0-.32-.08-.61-.241-.869a1.659 1.659 0 0 0-.668-.615c-.29-.156-.635-.234-1.036-.234h-2.213v3.162Zm0-4.338h1.999c.334 0 .637-.065.909-.194.272-.13.486-.312.642-.548a1.47 1.47 0 0 0 .234-.829c0-.41-.143-.75-.428-1.022-.285-.277-.724-.415-1.317-.415h-2.039v3.008Zm9.452 5.815c-.473 0-.901-.087-1.284-.26a2.149 2.149 0 0 1-.909-.776c-.223-.339-.334-.753-.334-1.243 0-.424.08-.771.241-1.043a1.84 1.84 0 0 1 .661-.648c.281-.16.591-.28.929-.361.344-.08.691-.14 1.043-.18.441-.054.8-.096 1.076-.128.277-.035.479-.091.609-.167.133-.08.2-.207.2-.38v-.04c0-.281-.053-.518-.16-.71a1.057 1.057 0 0 0-.482-.44c-.209-.107-.472-.16-.788-.16a2.11 2.11 0 0 0-.843.153 1.658 1.658 0 0 0-.568.38 1.712 1.712 0 0 0-.32.489l-1.384-.361c.169-.446.412-.805.728-1.076.317-.272.68-.47 1.09-.595.41-.125.833-.187 1.27-.187.303 0 .624.035.962.107.339.07.658.2.956.387.299.188.542.45.729.789.187.339.281.78.281 1.324V30h-1.424v-1.023h-.074a2.132 2.132 0 0 1-.434.562 2.316 2.316 0 0 1-.729.454c-.289.116-.637.174-1.042.174Zm.327-1.183c.401 0 .744-.078 1.029-.234a1.653 1.653 0 0 0 .883-1.444v-.956c-.054.054-.156.103-.308.148a6.14 6.14 0 0 1-.508.113 14.81 14.81 0 0 1-.554.08c-.179.023-.326.04-.442.054-.276.035-.53.096-.762.18-.227.085-.41.205-.548.361-.133.156-.2.363-.2.622 0 .236.06.434.18.595.125.16.292.28.502.36.209.08.452.121.728.121Zm6.831-3.409V30h-1.47v-7.473h1.403l.014 1.832h-.154c.218-.669.535-1.157.949-1.464.415-.308.916-.461 1.504-.461.508 0 .951.107 1.33.32.379.214.675.53.889.95.214.414.321.931.321 1.55V30h-1.471v-4.565c0-.54-.14-.96-.421-1.263-.28-.303-.666-.455-1.156-.455a1.8 1.8 0 0 0-.889.22c-.263.143-.47.353-.622.629-.151.276-.227.613-.227 1.01Zm8.121 1.905v-1.798h.248l2.947-3.155h1.765l-3.376 3.616h-.247l-1.337 1.337ZM133.307 30v-9.96h1.471V30h-1.471Zm4.706 0-2.654-3.53 1.016-1.042L139.831 30h-1.818Z"/>
</svg>
