<svg xmlns="http://www.w3.org/2000/svg" width="150" height="50" fill="none" viewBox="0 0 150 50">
  <g clip-path="url(#a)">
    <g clip-path="url(#b)">
      <path fill="#fff" d="M39.959 27.818v-13.48h4.385v12.918c0 .91.193 1.123 1.12 1.123h.367l.522 3.564c-.329.039-1.68.136-2.511.136-2.396.019-3.883-.833-3.883-4.261Zm33.572-8.231 3.4-.271.329 1.026c.676-.639 1.873-1.278 4.442-1.278 4.424 0 5.448 3.118 5.448 6.604 0 3.506-1.12 6.585-5.718 6.585-2.028 0-2.994-.465-3.535-.968v4.435h-4.385l.02-16.133Zm9.176 6.256c0-1.492-.27-2.79-2.163-2.79-2.029 0-2.628 1.046-2.628 2.79 0 1.742.445 2.71 2.627 2.71 1.855-.018 2.164-1.239 2.164-2.71Zm20.07-6.256 3.4-.271.444 1.336c.56-.755 2.086-1.394 3.902-1.472v4.222c-2.917.02-3.361.891-3.361 2.634v6.004h-4.385V19.587Zm8.963-.407H114l.715-2.575 3.38-.737v3.312h2.763v4.222h-2.763v3.68c0 .871.135 1.317 1.507 1.317h1.256v3.66c-.657.039-1.391.058-2.222.058-3.689 0-4.906-1.181-4.906-4.377v-4.318h-1.99V19.18Zm-82.598.155h2.395v-.252c0-3.195 1.197-4.783 5.312-4.783 1.082 0 1.275.02 1.816.058v3.563h-1.217c-1.256 0-1.526.31-1.526 1.124v.29h2.743v3.719h-2.762v8.986h-4.366v-8.986h-2.395v-3.719Zm26.753 8.909c-.734.426-1.1.523-2.55.523-1.719 0-2.376-.62-2.588-1.646h8.422c.155-4.474-.212-8.096-5.834-8.096-5.62 0-6.818 3.118-6.818 6.566 0 3.544 1.178 6.681 6.819 6.681 2.22 0 3.612-.406 5.1-1.375l-2.55-2.653Zm-2.665-5.597c1.796 0 1.931.852 2.009 1.898h-4.501c.154-1.22.734-1.898 2.492-1.898Z"/>
      <path fill="#fff" d="m67.871 32.06-2.144-3.08-2.144 3.08h-4.906l4.597-6.566-4.172-5.907h4.945l1.7 2.402 1.7-2.402h5.003l-4.25 5.888 4.597 6.584h-4.925Zm20.187-6.411c0-4.222 1.931-6.604 6.876-6.604 4.965 0 6.858 2.401 6.858 6.604 0 4.222-1.913 6.623-6.858 6.623-4.945.02-6.876-2.401-6.876-6.623Zm9.33.136c0-1.588-.406-2.75-2.454-2.75-2.067 0-2.453 1.162-2.453 2.75 0 1.568.406 2.75 2.453 2.75 2.067 0 2.454-1.162 2.454-2.75Z"/>
    </g>
  </g>
  <defs>
    <clipPath id="a">
      <path fill="#fff" d="M29.142 14.3h91.716v21.4H29.142z"/>
    </clipPath>
    <clipPath id="b">
      <path fill="#fff" d="M29.142 14.3h91.716v21.4H29.142z"/>
    </clipPath>
  </defs>
</svg>
