<svg xmlns="http://www.w3.org/2000/svg" width="150" height="50" fill="none" viewBox="0 0 150 50">
  <g clip-path="url(#a)">
    <path fill="#fff" d="M44.891 31.716c-6.713 0-9.041-1.5-9.078-8.77 0-7.27 2.303-8.833 9.041-8.833 2.836 0 5.487.43 6.564.64.285.037.471.283.397.529l-.248 1.39c-.037.246-.322.43-.607.394-1.04-.173-3.48-.53-5.772-.53-5.747 0-6.316 1.206-6.316 6.41 0 4.994.57 6.445 6.242 6.409 2.267 0 4.769-.357 5.846-.53.285-.036.57.148.607.394l.248 1.28c.037.246-.149.504-.397.529-1.065.258-3.69.689-6.527.689ZM29 31.188v-.923c0-.172.149-.32.322-.357l.929-.172c.322-.037.396-.148.396-.467V21.85c0-.32-.074-.43-.396-.467l-.929-.173c-.173-.037-.322-.184-.322-.356v-.923c0-.21.173-.357.396-.357h3.691c.21 0 .397.172.397.357v9.373c0 .32.074.431.396.468l.892.172c.173.037.322.172.322.357v.922c0 .21-.174.357-.397.357h-5.3a.406.406 0 0 1-.397-.393Zm52.676-.075v-.922c0-.172.148-.32.322-.357l.929-.172c.322-.037.396-.148.396-.468v-7.417c0-.32-.074-.43-.396-.468l-.93-.172c-.173-.037-.321-.172-.321-.357v-.922c0-.21.173-.357.396-.357h3.691c.21 0 .396.172.396.357v9.373c0 .32.075.43.397.468l.892.172c.173.037.322.172.322.357v.922c0 .21-.186.357-.397.357H82.06c-.21-.037-.384-.221-.384-.394Zm35.881-1.253c-.075-.075-.149-.112-.211-.148l-.892-.173c-.359-.037-.396-.147-.396-.467l-.087-14.171c0-.21-.173-.357-.396-.357h-3.691c-.211 0-.396.172-.396.357v.922c0 .172.148.32.322.357l.929.172c.322.037.396.148.396.468l.037 11.76c0 .529-.359.96-.929.996h-.755c-.607-.037-.929-.504-.929-.996v-5.597c0-1.636-.533-2.571-1.647-3.1-1.004-.505-2.515-.677-4.558-.677a30.11 30.11 0 0 0-5.81.566c-.21.037-.358.21-.321.43l.248 1.206c.037.21.247.32.47.283.83-.148 2.874-.504 4.954-.504 1.189 0 2.044.037 2.651.283.867.32 1.189.922 1.152 1.894 0 .21-.211.43-.471.43l-5.128.074c-3.653.074-4.73.923-4.73 3.814 0 3.063 1.25 3.887 5.486 3.887.681 0 1.722-.074 2.229-.074.211 0 .434-.074.607-.148.508-.209 1.573-.676 1.87-.713.285-.037.434.11.508.32 0 .037.037.11.037.148.038.172.211.282.397.282h8.732c.21 0 .396-.172.396-.356v-.923c.025-.098-.012-.172-.074-.246Zm-9.835-1.034c0 .172-.148.32-.322.357-.755.147-2.613.43-4.235.43-2.044 0-2.874-.11-2.874-1.857 0-2.14 1.041-1.92 3.047-1.956l3.988-.074c.211 0 .434.148.434.357l-.038 2.743Zm-13.599 2.718c-3.517 0-3.95-1.205-3.95-3.985v-5.856c0-.209-.174-.357-.397-.357h-1.932c-.21 0-.397-.172-.397-.356v-1.206c0-.209.174-.357.397-.357h1.932c.21 0 .396-.172.396-.356v-2.498c0-.209.186-.356.396-.356h2.044c.21 0 .396.172.396.357v2.497c0 .209.186.356.397.356h3.158c.21 0 .396.173.396.357v1.206c0 .209-.185.356-.396.356h-3.158c-.21 0-.397.173-.397.357v6.237c0 1.353.186 1.71 1.833 1.71.397 0 1.078-.074 1.512-.148.21-.037.433.11.47.32l.149 1.033c.037.173-.112.357-.285.394-.52.11-1.486.295-2.564.295Zm-30.505-.037c-.21 0-.396-.11-.433-.32-.074-.209-.174-.504-.533-.43-.285.037-1.362.504-1.87.713a1.63 1.63 0 0 1-.607.148c-.508.037-1.548.074-2.23.074-4.235 0-5.486-.825-5.486-3.888 0-2.89 1.077-3.74 4.731-3.813l5.029-.074c.433 0 .532-.172.57-.529 0-.923-.322-1.5-1.152-1.82-.607-.247-1.474-.283-2.65-.283-2.044 0-4.05.32-4.918.504-.248.037-.47-.11-.508-.32l-.247-1.18c-.038-.21.111-.394.322-.468.867-.173 3.01-.566 5.771-.566 2.044 0 3.555.172 4.558.677 1.115.528 1.647 1.463 1.647 3.1v6.088c0 .32.075.431.397.468l.892.172c.21.037.359.21.359.394v.886c0 .209-.174.393-.434.393l-3.208.074Zm-.817-5.314c0-.21-.21-.394-.434-.394l-3.95.074c-2.007.037-3.047-.21-3.047 1.956 0 1.747.83 1.857 2.873 1.857 1.61 0 3.443-.282 4.199-.43.21-.037.359-.21.359-.394v-2.67Z"/>
    <path fill="#fff" d="M75.397 19.354c-.434 0-.892 0-1.251.036-.57.037-.966.111-1.288.21l-.93.356c-.284.111-.792.32-1.04.32-.285 0-.433-.504-.433-.504-.075-.172-.21-.246-.47-.246h-3.01c-.174 0-.397.147-.397.357v.922c0 .172.149.32.322.357l.93.172c.321.037.395.11.395.468l.038 11.796c0 .32-.075.431-.397.468l-.929.172c-.173.037-.322.172-.322.357v.922c0 .21.174.357.397.357h5.313c.21 0 .396-.172.396-.357v-.922c0-.172-.148-.32-.322-.357l-.891-.172c-.36-.037-.397-.148-.397-.468v-2.03c0-.172.174-.282.36-.245.606.147 1.969.393 3.331.393 5.09 0 6.205-1.783 6.205-6.236-.012-4.417-1.127-6.127-5.61-6.127Zm-.83 10.333c-1.363 0-2.514-.111-3.084-.21-.21-.036-.397-.209-.397-.393v-6.987c0-.21.174-.394.397-.43a20.134 20.134 0 0 1 3.158-.284c2.836 0 3.443.788 3.443 4.097 0 3.53-.607 4.17-3.517 4.207Zm8.112-12.511v-2.24c0-.208.173-.356.396-.356h2.65c.211 0 .397.172.397.357v2.251c0 .21-.186.357-.396.357h-2.65c-.224-.013-.397-.185-.397-.37Zm-52.676 0v-2.24c0-.208.173-.356.396-.356h2.65c.211 0 .397.172.397.357v2.251c0 .21-.173.357-.396.357H30.4c-.211-.013-.397-.185-.397-.37Zm89.523 12.757h.508c.149 0 .248.037.322.11a.325.325 0 0 1 .112.246.337.337 0 0 1-.211.32l.248.394h-.322l-.211-.357h-.186v.357h-.247v-1.07h-.013Zm.459.504c.111 0 .185-.074.185-.148 0-.11-.074-.147-.185-.147h-.248v.32h.248v-.025Z"/>
    <path fill="#fff" d="M119.922 29.613c.471 0 .83.357.83.824a.812.812 0 0 1-.83.825.812.812 0 0 1-.83-.825c0-.467.36-.824.83-.824Zm0-.246c-.607 0-1.077.505-1.077 1.07 0 .566.508 1.07 1.077 1.07.57 0 1.078-.504 1.078-1.07 0-.578-.471-1.07-1.078-1.07Z"/>
  </g>
  <defs>
    <clipPath id="a">
      <path fill="#fff" d="M29 14.113h92v21.773H29z"/>
    </clipPath>
  </defs>
</svg>
