<svg xmlns="http://www.w3.org/2000/svg" width="324" height="314" fill="none" viewBox="0 0 324 314">
  <path fill="url(#a)" d="m185.2 156.3-5.8-6 58-69.9c14.8 8.6 34.3 7.2 47.8-3.6C301 64.1 305.9 41.9 296.8 24c-.2-.3-.3-.6-.5-.9 0-.1-.1-.3-.2-.4-8.3-15.3-26-24.3-43.2-21.9-17.8 2.5-32.3 15.9-36.1 33.4-2.8 12.8.7 26.3 9.3 36.6L169 139.5l-6.6-6.9L63.8 27.9C53 16.4 38 9.9 22.2 9.9H.5l137.8 146.6 8.7 9.3L37.1 298.6c-3 3.7-1.8 7.9 1.1 10.3 2.8 2.4 7.3 2.8 10.3-.8l9.7-11.7 20.5 17 .8-28.7 28.1-6-20.5-17 70.3-84.6 3.9 4.2 93.6 99.7c14.5 15.4 34.7 24.2 55.9 24.2H324L185.2 156.3Zm45.5-114.4c.7-12.1 9-22.4 20.7-25.6 1.5-.4 3-.7 4.6-.8 10.7-1 21.5 4.6 27.3 14.7 6.1 12.3 3.4 26.2-7 35-2.6 2.2-5.8 3.9-9.1 4.9-20.6 6.1-37.5-10.8-36.5-28.2Z"/>
  <defs>
    <linearGradient id="a" x1=".655" x2="323.846" y1="156.947" y2="156.947" gradientUnits="userSpaceOnUse">
      <stop offset=".008" stop-color="#6C2D16"/>
      <stop offset=".17" stop-color="#B47851"/>
      <stop offset=".205" stop-color="#C68C61"/>
      <stop offset=".416" stop-color="#D69C6F"/>
      <stop offset=".671" stop-color="#925D34"/>
      <stop offset="1" stop-color="#6C2D16"/>
    </linearGradient>
  </defs>
</svg>
