<svg xmlns="http://www.w3.org/2000/svg" width="619" height="170" fill="none" viewBox="0 0 619 170">
  <path fill="url(#resx-fill)" d="m543.9 84.211-3.1-3.2 31.4-37.8c8 4.6 18.6 3.9 25.8-1.9 8.6-6.9 11.2-18.9 6.3-28.6-.1-.2-.2-.3-.3-.5 0-.1-.1-.1-.1-.2-4.5-8.3-14.1-13.1-23.3-11.8-9.6 1.3-17.5 8.6-19.5 18.1-1.5 6.9.4 14.2 5 19.8l-30.9 37.2-3.6-3.7-53.3-56.6c-5.8-6.2-14-9.7-22.5-9.7h-11.7l74.5 79.3 4.7 5-59.5 71.7c-1.6 2-.9 4.3.6 5.6 1.5 1.3 3.9 1.5 5.6-.4l5.3-6.3 11.1 9.2.4-15.5 15.2-3.2-11.1-9.2 38-45.8 2.1 2.3 50.6 53.9c7.8 8.3 18.8 13.1 30.2 13.1h7.1l-75-80.8Zm24.6-61.9c.4-6.5 4.9-12.1 11.2-13.8.8-.2 1.6-.4 2.5-.5 5.8-.5 11.6 2.5 14.8 7.9 3.3 6.7 1.9 14.2-3.8 18.9-1.4 1.2-3.1 2.1-4.9 2.6-11.1 3.4-20.3-5.7-19.8-15.1Zm-464.1 45.9c0-19.5-15.8-30.6-37.9-30.6H0v99.1h2.5c5.3 0 9.6-4.3 9.6-9.6v-28.4h47.1l26.1 30.1c4.3 5 10.5 7.8 17.1 7.8h5.2l-33.8-38.4c18.2-2 30.6-12.8 30.6-30Zm-92.5 19.5v-39.1h53.8c16 0 26.6 6.1 26.6 19.5s-10.6 19.5-26.6 19.5H11.9v.1Zm243.8 49h-95.8v-99.1h94.4c0 6.1-4.9 11-11 11h-71.5v32.1h64.4c3 0 5.5 2.5 5.5 5.5s-2.5 5.5-5.5 5.5h-64.4v33.8h72.9c6.1.1 11 5.1 11 11.2Zm160.5-28.7c0 18.3-18.5 31.7-50.8 31.7-21.7 0-42.5-6.8-57.9-20.4 4.5-4.8 11.8-5.6 17.4-2 12.1 7.9 25.4 11.4 41.2 11.4 23.9 0 37.9-7.5 37.9-19.8 0-12-14.6-15-41.3-17.3-26.5-2.3-51.8-8.1-51.8-27.6 0-18.7 23.5-29.3 50-29.3 21.5 0 39.2 7.5 50.7 17.7-5 4.3-12.2 4.8-17.8 1.4-8.9-5.2-20-8-32.3-8.1-17.7-.1-38.4 4.8-38.4 17.8 0 12.3 18.7 14.9 42 16.7 30.2 2.4 51.1 8.2 51.1 27.8Z"/>
  <defs>
    <linearGradient id="resx-fill" x1="-.014" x2="618.907" y1="84.503" y2="84.503" gradientUnits="userSpaceOnUse">
      <stop stop-color="#6C2D16"/>
      <stop offset=".169" stop-color="#B87C54"/>
      <stop offset=".211" stop-color="#CE9468"/>
      <stop offset=".451" stop-color="#844729"/>
      <stop offset=".64" stop-color="#D69C6F"/>
      <stop offset=".78" stop-color="#925D34"/>
      <stop offset="1" stop-color="#6C2D16"/>
    </linearGradient>
  </defs>
</svg>
