<svg xmlns="http://www.w3.org/2000/svg" width="150" height="62" fill="none" viewBox="0 0 150 62">
  <path fill="#fff" d="m34.119 21.456 2.65-4.598a2.813 2.813 0 0 0-1.03-3.842c-1.347-.771-3.074-.318-3.846 1.028l-2.666 4.599c-5.663-1.785-12.009.53-15.098 5.883a12.92 12.92 0 0 0-1.015 10.755l4.907-8.5c1.12-1.952 2.953-3.344 5.134-3.933a8.328 8.328 0 0 1 6.406.847c4.028 2.329 5.421 7.502 3.089 11.525-2.332 4.023-7.496 5.415-11.54 3.086l2.817-4.87c1.348.77 3.074.317 3.847-1.03a2.813 2.813 0 0 0-1.03-3.841c-1.348-.771-3.074-.318-3.847 1.028l-8.965 15.534a2.813 2.813 0 0 0 1.03 3.842c1.348.772 3.074.318 3.846-1.028l2.666-4.599c5.664 1.785 12.009-.529 15.098-5.883 3.09-5.34 1.923-11.98-2.453-16.003Zm11.917 3.342h4.362c2.529 0 4.618 1.255 4.618 4.16 0 2.903-2.09 4.174-4.618 4.174h-1.803v4.069h-2.559V24.798Zm4.286 6.095c1.257 0 2.06-.56 2.06-1.936 0-1.391-.834-1.905-2.06-1.905h-1.727v3.841h1.727Zm8.436-6.095h8.208v2.238h-5.649v2.844H66.3v2.193h-4.982v2.874h5.906v2.239h-8.465V24.798Zm12.751 0h2.544v10.149h5.618v2.239H71.51V24.798ZM82.518 31c0-3.66 2.847-6.352 6.42-6.352 3.575 0 6.422 2.692 6.422 6.352s-2.847 6.353-6.421 6.353c-3.574 0-6.421-2.693-6.421-6.353Zm10.207 0c0-2.314-1.53-4.084-3.786-4.084-2.257 0-3.786 1.77-3.786 4.084 0 2.314 1.53 4.084 3.786 4.084 2.256 0 3.786-1.77 3.786-4.084Zm8.92-3.964h-3.543v-2.238h9.631v2.238h-3.544v10.15h-2.559v-10.15h.015ZM110.459 31c0-3.66 2.847-6.352 6.421-6.352 3.574 0 6.421 2.692 6.421 6.352s-2.847 6.353-6.421 6.353c-3.574 0-6.421-2.693-6.421-6.353Zm10.207 0c0-2.314-1.53-4.084-3.786-4.084-2.256 0-3.786 1.77-3.786 4.084 0 2.314 1.53 4.084 3.786 4.084 2.256 0 3.786-1.77 3.786-4.084Zm10.419.44c-.621-.59-1.484-1.695-1.484-1.695s.181 1.361.181 2.254v5.188h-2.392V24.693h.257l6.255 5.869c.605.56 1.453 1.694 1.453 1.694s-.166-1.407-.166-2.254v-5.188h2.392v12.494h-.257l-6.239-5.869Z"/>
</svg>
