<svg xmlns="http://www.w3.org/2000/svg" width="72" height="72" fill="currentColor" viewBox="0 0 72 72">
  <path fill-opacity=".15" d="M30.816 11.115a4.5 4.5 0 0 1-1.431 6.201 32.85 32.85 0 0 0-12.51 14.229A13.5 13.5 0 1 1 4.5 45v-.121c.005-.349.02-.697.045-1.044.04-.675.122-1.62.279-2.782.315-2.308.931-5.49 2.178-9.062 2.484-7.155 7.515-15.998 17.613-22.307a4.5 4.5 0 0 1 6.201 1.431Zm31.5 0a4.5 4.5 0 0 1-1.431 6.201 32.85 32.85 0 0 0-12.51 14.229A13.5 13.5 0 1 1 36 45v-.121c.005-.349.02-.697.045-1.044.04-.675.121-1.62.279-2.782.315-2.308.931-5.49 2.178-9.062 2.484-7.155 7.515-15.998 17.613-22.307a4.5 4.5 0 0 1 6.201 1.431Z"/>
</svg>
