<svg xmlns="http://www.w3.org/2000/svg" width="150" height="50" fill="none" viewBox="0 0 150 50">
  <g clip-path="url(#a)">
    <path fill="#fff" d="M60.398 24.524c-.807-.448-1.232-.81-1.232-1.322 0-.66.574-1.065 1.487-1.065 1.062 0 1.996.447 1.996.447l.743-2.28s-.68-.532-2.697-.532c-2.803 0-4.757 1.62-4.757 3.878 0 1.279.913 2.259 2.124 2.962.977.554 1.317.96 1.317 1.535 0 .618-.489 1.108-1.402 1.108-1.36 0-2.634-.703-2.634-.703l-.785 2.28s1.189.788 3.164.788c2.888 0 4.948-1.428 4.948-3.985.043-1.406-1.019-2.387-2.272-3.111Zm11.512-4.795c-1.423 0-2.528.681-3.399 1.704l-.042-.02 1.232-6.48h-3.228L63.35 31.408h3.207l1.061-5.626c.425-2.131 1.508-3.431 2.528-3.431.722 0 .998.49.998 1.193 0 .448-.043.98-.149 1.428l-1.21 6.457h3.207l1.253-6.649c.148-.703.233-1.534.233-2.11.043-1.854-.892-2.94-2.57-2.94Zm9.875 0c-3.866 0-6.435 3.495-6.435 7.394 0 2.494 1.529 4.518 4.417 4.518 3.802 0 6.35-3.41 6.35-7.395.021-2.322-1.317-4.517-4.332-4.517Zm-1.572 9.419c-1.104 0-1.55-.938-1.55-2.11 0-1.854.955-4.859 2.697-4.859 1.147 0 1.508.98 1.508 1.94 0 2.003-.956 5.029-2.655 5.029Zm14.145-9.419c-2.167 0-3.398 1.918-3.398 1.918h-.043l.191-1.727h-2.846a79.217 79.217 0 0 1-.658 4.284l-2.23 11.764h3.207l.892-4.774h.064s.658.426 1.89.426c3.78 0 6.244-3.879 6.244-7.8 0-2.152-.956-4.091-3.313-4.091Zm-3.059 9.483c-.828 0-1.316-.469-1.316-.469l.53-3.005c.383-2.003 1.423-3.346 2.528-3.346.977 0 1.274.917 1.274 1.77 0 2.066-1.232 5.05-3.016 5.05Zm10.959-14.108c-1.02 0-1.848.81-1.848 1.876 0 .959.595 1.62 1.508 1.62h.043c.998 0 1.868-.683 1.89-1.876.021-.959-.616-1.62-1.593-1.62Zm-4.502 16.303h3.228l2.187-11.423h-3.249l-2.166 11.423Zm13.571-11.444h-2.23l.106-.533c.192-1.108.829-2.088 1.912-2.088.573 0 1.019.17 1.019.17l.637-2.514s-.552-.277-1.741-.277c-1.147 0-2.273.32-3.143 1.065-1.105.938-1.614 2.28-1.869 3.644l-.085.533h-1.487l-.467 2.43h1.487l-1.699 9.014h3.207l1.699-9.014h2.208l.446-2.43Zm7.73.021s-2.018 5.072-2.909 7.843h-.043c-.064-.895-.786-7.843-.786-7.843h-3.377l1.933 10.485c.043.235.021.384-.064.533a5.582 5.582 0 0 1-1.741 1.94c-.595.447-1.274.724-1.805.916l.892 2.728c.658-.15 1.996-.682 3.143-1.748 1.465-1.385 2.824-3.495 4.205-6.393l3.929-8.46h-3.377Zm-75.564-7.416s-.297.085-.786.235a6.246 6.246 0 0 0-.382-.938c-.552-1.066-1.38-1.641-2.357-1.641-.064 0-.128 0-.213.021-.021-.042-.064-.064-.085-.106-.425-.47-.977-.682-1.635-.661-1.274.043-2.549.959-3.568 2.6-.722 1.15-1.274 2.6-1.423 3.73-1.465.447-2.485.767-2.506.788-.743.234-.765.256-.85.959-.063.533-2.017 15.536-2.017 15.536l16.056 2.791V12.547c-.128 0-.191.021-.234.021Zm-3.717 1.15c-.85.257-1.784.555-2.697.832.255-1.002.765-2.003 1.36-2.664.233-.234.552-.511.913-.682.36.767.446 1.812.424 2.515Zm-1.741-3.366c.297 0 .552.064.765.192-.34.17-.68.447-.999.767-.807.873-1.423 2.237-1.678 3.537-.764.235-1.529.47-2.23.682.468-2.045 2.188-5.136 4.142-5.178Zm-2.464 11.72c.085 1.365 3.675 1.663 3.887 4.881.148 2.536-1.338 4.262-3.483 4.39-2.591.17-4.014-1.364-4.014-1.364l.552-2.344s1.423 1.087 2.57 1.002c.743-.043 1.02-.661.998-1.087-.106-1.79-3.037-1.684-3.228-4.625-.17-2.472 1.444-4.965 5.012-5.2 1.38-.085 2.081.256 2.081.256l-.807 3.069s-.913-.426-1.996-.341c-1.572.106-1.593 1.108-1.572 1.364Zm5.055-8.609c0-.64-.085-1.555-.382-2.323.977.192 1.444 1.279 1.656 1.94-.382.106-.807.234-1.274.383Zm3.589 22.377 6.668-1.662s-2.867-19.457-2.888-19.585a.247.247 0 0 0-.233-.213c-.107 0-1.976-.043-1.976-.043s-1.146-1.108-1.571-1.534V35.84Z"/>
  </g>
  <defs>
    <clipPath id="a">
      <path fill="#fff" d="M27.607 9.414h94.784v27.172H27.607z"/>
    </clipPath>
  </defs>
</svg>
